<svg xmlns="http://www.w3.org/2000/svg" width="149" height="34" viewBox="0 0 149 34">
    <g fill="none" fill-rule="evenodd">
        <g fill-rule="nonzero">
            <path fill="#EA4403" d="M29.25 21.913l2.613 2.998-1.188 2.373-6.587-.324-.108-1.833 2.16.431 3.023.216.108-.755-3.995-1.942zM4.976 14.34l-3.671 1.294-.864-.97-.432.108.972 1.833 4.751-1.294zM15.747 27.443l.691 1.817 3.565 1.617.306 1.035h1.767l-.903-1.932-3.131-1.725.108-5.61-7.775-2.372-.324 1.294z"/>
            <path fill="#FF5000" d="M29.271 31.912h-1.727l-1.08-1.716 2.267-8.305 1.944-.108-2.351 8.258zM5.084 18.655V23.4l-1.188.108 1.62 8.413h1.836l-.216-1.294-.864-4.854 4.117-4.296.742-.774z"/>
            <path fill="#FF5000" d="M39.421 19.841v.97l-3.617 3.614H34.13V20.92l-4.88 1.209-7.753 1.919-16.413-5.286-.108-4.422 8.314-4.206 15.118-8.09L39.42 12.938v4.207h4.535z"/>
        </g>
        <path fill="#152935" d="M55.8 24.24c-1.9 0-3.16-.8-4.08-2.02l1.14-.92c.8 1 1.76 1.58 3.06 1.58 1.36 0 2.16-.62 2.16-1.68 0-.8-.44-1.42-1.8-1.62l-.82-.12c-1.9-.28-3.32-1.06-3.32-2.98 0-2.04 1.58-3.04 3.68-3.04 1.66 0 2.76.62 3.6 1.66l-1.06.96c-.46-.64-1.34-1.26-2.66-1.26s-2.02.62-2.02 1.6c0 1 .7 1.4 1.98 1.6l.8.12c2.28.34 3.16 1.34 3.16 2.9 0 2-1.46 3.22-3.82 3.22zm10.77 0c-2.8 0-4.64-2.12-4.64-5.4 0-3.28 1.84-5.4 4.64-5.4 2.76 0 4.46 2.12 4.46 5.04v.76h-7.42v.48c0 1.78 1.14 3.12 3.06 3.12 1.3 0 2.3-.64 2.84-1.78l1.14.82c-.66 1.4-2.14 2.36-4.08 2.36zm0-9.46c-1.74 0-2.96 1.32-2.96 3.12v.14h5.7v-.22c0-1.82-1.1-3.04-2.74-3.04zM75.52 24h-1.6V13.68h1.6v1.68h.08c.5-1.16 1.38-1.92 2.92-1.92 2.12 0 3.46 1.44 3.46 3.94V24h-1.6v-6.34c0-1.84-.8-2.78-2.34-2.78-1.28 0-2.52.64-2.52 1.96V24zm13.11.24c-1.9 0-3.16-.8-4.08-2.02l1.14-.92c.8 1 1.76 1.58 3.06 1.58 1.36 0 2.16-.62 2.16-1.68 0-.8-.44-1.42-1.8-1.62l-.82-.12c-1.9-.28-3.32-1.06-3.32-2.98 0-2.04 1.58-3.04 3.68-3.04 1.66 0 2.76.62 3.6 1.66l-1.06.96c-.46-.64-1.34-1.26-2.66-1.26s-2.02.62-2.02 1.6c0 1 .7 1.4 1.98 1.6l.8.12c2.28.34 3.16 1.34 3.16 2.9 0 2-1.46 3.22-3.82 3.22zm7.69-12.98c-.68 0-.98-.36-.98-.9v-.26c0-.54.3-.9.98-.9.68 0 .98.36.98.9v.26c0 .54-.3.9-.98.9zM95.52 24V13.68h1.6V24h-1.6zm5.25 0V9.2h1.6v6.16h.08c.54-1.3 1.6-1.92 3.02-1.92 2.58 0 4.2 2.1 4.2 5.4 0 3.3-1.62 5.4-4.2 5.4-1.42 0-2.4-.64-3.02-1.92h-.08V24h-1.6zm4.26-1.2c1.8 0 2.92-1.24 2.92-3.08v-1.76c0-1.84-1.12-3.08-2.92-3.08-1.46 0-2.66.84-2.66 1.98v3.84c0 1.34 1.2 2.1 2.66 2.1zm13.95 1.2v-1.68h-.08c-.4.98-1.18 1.92-2.9 1.92-2.12 0-3.48-1.44-3.48-3.94v-6.62h1.6v6.34c0 1.84.82 2.78 2.36 2.78 1.26 0 2.5-.62 2.5-1.98v-7.14h1.6V24h-1.6zm8.37 0h-1.42c-1.1 0-1.7-.7-1.7-1.66V9.2h1.6v13.4h1.52V24zm5.59 0h-1.42c-1.1 0-1.7-.7-1.7-1.66V9.2h1.6v13.4h1.52V24z"/>
    </g>
</svg>
