<svg xmlns="http://www.w3.org/2000/svg" width="252" height="172" viewBox="0 0 252 172">
    <g fill="none" fill-rule="nonzero">
        <path fill="#EA4403" d="M167.519 114.166l14.967 17.189-6.802 13.606-37.724-1.856-.619-10.513 12.37 2.474 17.315 1.236.62-4.329-22.883-11.13zM28.5 70.75L7.474 78.17l-4.948-5.566-2.474.619L5.62 83.737l27.21-7.42zM90.188 145.875l3.96 10.415 20.414 9.272 1.754 5.934h10.121l-5.174-11.075-17.934-9.895.619-32.157-44.527-13.607-1.855 7.422z"/>
        <path fill="#FF5000" d="M167.645 171.496h-9.895l-6.184-9.838 12.986-47.619 11.133-.618-13.467 47.35zM29.118 95.487v27.211l-6.802.618 9.276 48.237h10.514l-1.238-7.421-4.947-27.829 23.582-24.63 4.248-4.436z"/>
        <path fill="#FF5000" d="M225.776 102.29v5.565l-20.717 20.717h-9.585v-20.099l-27.955 6.93-44.4 11.004-94.001-30.302L28.5 70.75l47.618-24.118L162.698.25l63.078 62.46v24.118h25.974z"/>
    </g>
</svg>
