<svg xmlns="http://www.w3.org/2000/svg" width="20" height="36" viewBox="0 0 20 36">
    <g fill="none" fill-rule="nonzero">
        <path fill="#444" d="M2.347 4.714H3.66v5.996H2.347zM2.347 2.027h1.314V3.67H2.347zM5.437.8H6.75v5.996H5.437zM5.437 7.839H6.75v1.645H5.437z"/>
        <path fill="#FF5000" d="M9.172 13.202a.785.785 0 0 0-.775-.774H1.07a.785.785 0 0 0-.775.774v2.773c0 .42.355.774.775.774h7.328c.42 0 .775-.354.775-.774v-2.773z"/>
        <path fill="#444" d="M9.172 20.962a.785.785 0 0 0-.775-.775H1.07a.785.785 0 0 0-.775.775v2.772c0 .265.145.518.378.66l.064.04.136-.019c.065-.009.13-.018.196-.018h7.33c.066 0 .13.01.195.018l.138.018.063-.038a.783.783 0 0 0 .377-.66v-2.773zM9.172 26.436a.785.785 0 0 0-.775-.775H1.07a.785.785 0 0 0-.775.775v2.772c0 .265.145.518.378.66l.064.039.135-.018c.065-.009.13-.019.198-.019h7.328c.068 0 .133.01.198.019l.136.018.063-.038a.781.781 0 0 0 .378-.66v-2.773zM8.397 31.135H1.07a.785.785 0 0 0-.775.774v2.773c0 .42.355.774.775.774h7.328c.42 0 .775-.354.775-.774v-2.773a.785.785 0 0 0-.775-.774zM11.182 29.907l.135-.018c.065-.009.13-.019.198-.019h7.328c.068 0 .133.01.198.019l.136.018.063-.039a.781.781 0 0 0 .378-.66v-2.772a.785.785 0 0 0-.775-.775h-7.329a.785.785 0 0 0-.775.775v2.772c0 .265.145.518.379.66l.064.039zM10.74 34.681c0 .42.355.775.775.775h7.328c.42 0 .775-.355.775-.775V31.91a.785.785 0 0 0-.775-.775h-7.329a.785.785 0 0 0-.775.775v2.772z"/>
    </g>
</svg>
