<svg xmlns="http://www.w3.org/2000/svg" width="33" height="32" viewBox="0 0 33 32">
    <g fill="none" fill-rule="nonzero">
        <path fill="#444" d="M23.155 18.453c-.22.054-.495.107-.715.107-.22 0-.44 0-.605-.053v11.466l-.77-.586-7.48-6.027c-.055-.053-.11-.053-.165-.107-.11-.106-.22-.16-.275-.213-.11-.053-.165-.107-.275-.16l-.22-.107a.422.422 0 0 1-.22-.106c-.11-.054-.165-.054-.22-.054-.11-.053-.22-.053-.22-.053h-.495c-.055 0-.11 0-.22.053-.055 0-.11.054-.165.054-.11.053-.22.053-.275.106l-.22.107c-.055.053-.165.107-.22.16-.11.053-.22.16-.275.213-.055.054-.11.107-.165.107l-8.25 6.667V16.32 2.667c0-.267 0-.427.055-.587l.055-.267.275-.053c.11-.053.33-.053.605-.053h9.68c0-.054.055-.054.11-.107.33-.48.77-.853 1.21-1.173h-11C.935.427.33 1.013.33 2.613V30.667c0 .533.44 1.013 1.045 1.013.22 0 .495-.107.66-.213l.935-.747c.11-.107.275-.213.44-.32l7.48-6.027c.055-.053.11-.106.165-.106.055-.054.11-.054.11-.107l.055-.053c.055-.054.11-.054.165-.107l.385-.16.44.16c.055.053.11.053.165.107l.055.053.11.107c.055.053.11.053.165.106l7.48 6.027c.11.107.22.213.33.267l.935.746c.165.16.44.267.66.267.55 0 1.045-.427 1.045-1.013V18.453z"/>
        <path fill="#FF5000" d="M32.505 5.067c-.275-1.227-.715-2.187-1.43-2.987-1.1-1.173-2.53-1.76-4.18-1.76h-.22c-1.815.053-3.245.747-4.235 2.027a5.911 5.911 0 0 0-1.375-1.227c-1.1-.64-2.365-.907-3.74-.747-1.595.16-2.805.8-3.74 1.974-.99 1.28-1.485 2.666-1.375 4.106a7.188 7.188 0 0 0 1.32 3.84c.88 1.334 2.035 2.4 3.08 3.254 1.43 1.226 3.135 2.346 5.28 3.52.22.106.385.16.605.16.22 0 .385-.054.605-.16 1.815-1.014 3.465-2.027 4.895-3.254 1.485-1.226 2.585-2.346 3.465-3.626 1.045-1.6 1.43-3.307 1.045-5.12zm-2.255 4.48c-.77 1.12-1.76 2.186-3.19 3.36-1.375 1.12-2.915 2.133-4.675 3.093-2.035-1.12-3.63-2.187-5.005-3.36-.935-.8-2.035-1.76-2.805-2.987-.66-1.013-1.045-2.08-1.1-3.2-.055-1.173.33-2.24 1.155-3.306.66-.854 1.595-1.334 2.805-1.44.22 0 .385-.054.605-.054.88 0 1.595.214 2.31.64.55.32.99.747 1.32 1.28l.715 1.174.88-1.28c.825-1.174 1.925-1.76 3.465-1.814h.165c1.32 0 2.365.427 3.19 1.334.55.586.935 1.333 1.1 2.346.33 1.44 0 2.827-.935 4.214z"/>
    </g>
</svg>
