<svg xmlns="http://www.w3.org/2000/svg" width="32" height="32" viewBox="0 0 32 32">
    <g fill="none" fill-rule="nonzero">
        <path fill="#444" d="M22.453 18.453c-.213.054-.48.107-.693.107-.213 0-.427 0-.587-.053v11.466l-.746-.586-7.254-6.027c-.053-.053-.106-.053-.16-.107-.106-.106-.213-.16-.266-.213-.107-.053-.16-.107-.267-.16l-.213-.107a.404.404 0 0 1-.214-.106c-.106-.054-.16-.054-.213-.054-.107-.053-.213-.053-.213-.053h-.48c-.054 0-.107 0-.214.053-.053 0-.106.054-.16.054-.106.053-.213.053-.266.106l-.214.107c-.053.053-.16.107-.213.16-.107.053-.213.16-.267.213-.053.054-.106.107-.16.107l-8 6.667V16.32 2.667c0-.267 0-.427.054-.587l.053-.267.267-.053c.106-.053.32-.053.586-.053H12c0-.054.053-.054.107-.107.32-.48.746-.853 1.173-1.173H2.613C.907.427.32 1.013.32 2.613V30.667c0 .533.427 1.013 1.013 1.013.214 0 .48-.107.64-.213l.907-.747c.107-.107.267-.213.427-.32l7.253-6.027c.053-.053.107-.106.16-.106.053-.054.107-.054.107-.107l.053-.053c.053-.054.107-.054.16-.107l.373-.16.427.16c.053.053.107.053.16.107l.053.053.107.107c.053.053.107.053.16.106l7.253 6.027c.107.107.214.213.32.267l.907.746c.16.16.427.267.64.267.533 0 1.013-.427 1.013-1.013V18.453z"/>
        <path fill="#FF5000" d="M31.52 5.067c-.267-1.227-.693-2.187-1.387-2.987C29.067.907 27.68.32 26.08.32h-.213c-1.76.053-3.147.747-4.107 2.027a5.794 5.794 0 0 0-1.333-1.227C19.36.48 18.133.213 16.8.373c-1.547.16-2.72.8-3.627 1.974-.96 1.28-1.44 2.666-1.333 4.106a7.337 7.337 0 0 0 1.28 3.84c.853 1.334 1.973 2.4 2.987 3.254 1.386 1.226 3.04 2.346 5.12 3.52.213.106.373.16.586.16.214 0 .374-.054.587-.16 1.76-1.014 3.36-2.027 4.747-3.254 1.44-1.226 2.506-2.346 3.36-3.626 1.013-1.6 1.386-3.307 1.013-5.12zm-2.187 4.48c-.746 1.12-1.706 2.186-3.093 3.36-1.333 1.12-2.827 2.133-4.533 3.093-1.974-1.12-3.52-2.187-4.854-3.36-.906-.8-1.973-1.76-2.72-2.987-.64-1.013-1.013-2.08-1.066-3.2-.054-1.173.32-2.24 1.12-3.306.64-.854 1.546-1.334 2.72-1.44.213 0 .373-.054.586-.054.854 0 1.547.214 2.24.64.534.32.96.747 1.28 1.28l.694 1.174.853-1.28c.8-1.174 1.867-1.76 3.36-1.814h.16c1.28 0 2.293.427 3.093 1.334.534.586.907 1.333 1.067 2.346.32 1.44 0 2.827-.907 4.214z"/>
    </g>
</svg>
