<svg xmlns="http://www.w3.org/2000/svg" width="20" height="17" viewBox="0 0 20 17">
    <path fill="#FF5000" fill-rule="nonzero" d="M19.695 4.747C19.428 3.52 19 2.56 18.308 1.76 17.241.587 15.855 0 14.255 0h-.214c-1.76.053-3.146.747-4.106 2.027A5.794 5.794 0 0 0 8.6.8C7.535.16 6.308-.107 4.975.053c-1.547.16-2.72.8-3.627 1.974-.96 1.28-1.44 2.666-1.333 4.106a7.337 7.337 0 0 0 1.28 3.84c.853 1.334 1.973 2.4 2.986 3.254 1.387 1.226 3.04 2.346 5.12 3.52.214.106.374.16.587.16.213 0 .373-.054.587-.16 1.76-1.014 3.36-2.027 4.746-3.254 1.44-1.226 2.507-2.346 3.36-3.626 1.014-1.6 1.387-3.307 1.014-5.12zm-2.187 4.48c-.747 1.12-1.707 2.186-3.093 3.36-1.334 1.12-2.827 2.133-4.534 3.093-1.973-1.12-3.52-2.187-4.853-3.36-.907-.8-1.973-1.76-2.72-2.987-.64-1.013-1.013-2.08-1.067-3.2-.053-1.173.32-2.24 1.12-3.306.64-.854 1.547-1.334 2.72-1.44.214 0 .374-.054.587-.054.853 0 1.547.214 2.24.64.533.32.96.747 1.28 1.28l.693 1.174.854-1.28c.8-1.174 1.866-1.76 3.36-1.814h.16c1.28 0 2.293.427 3.093 1.334.533.586.907 1.333 1.067 2.346.32 1.44 0 2.827-.907 4.214z"/>
</svg>
