<svg xmlns="http://www.w3.org/2000/svg" width="33" height="33" viewBox="0 0 33 33">
    <g fill="#000" fill-rule="nonzero">
        <path d="M26.643 24.054l1.216.694.035-.07a13.765 13.765 0 0 0 2.605-8.109c.035-3.777-1.39-7.312-4.03-9.945-2.64-2.669-6.148-4.124-9.9-4.124C8.822 2.5 2.5 8.772 2.5 16.5s6.322 14 14.07 14c1.354 0 2.64-.173 3.855-.554l.07-.035-.278-1.386-.104.034c-1.182.347-2.397.555-3.613.555-6.948 0-12.61-5.649-12.61-12.58 0-6.93 5.662-12.579 12.61-12.579 6.947 0 12.61 5.649 12.61 12.58 0 2.668-.834 5.232-2.432 7.45l-.035.07z"/>
        <path d="M28.207 4.832A16.439 16.439 0 0 0 16.534 0c-1.54 0-3.012.206-4.416.617L12.05.65l.24 1.268.102-.034a15.693 15.693 0 0 1 4.142-.583c8.387 0 15.234 6.82 15.234 15.25S24.92 31.765 16.534 31.765c-8.42-.034-15.233-6.887-15.233-15.283 0-3.187.958-6.203 2.807-8.807l.068-.069-1.13-.65-.034.068C1.027 9.8 0 13.09 0 16.517 0 25.598 7.394 33 16.466 33 25.572 33 33 25.598 33 16.517c0-4.386-1.677-8.533-4.793-11.685z"/>
        <path d="M23.583 14.686c-.608-.432-1.217 0-1.453.3l-1.454 2.096s-.237.399-.71.3c-.372-.067-.406-.8-.406-1.032l.575-6.089c0-.066.068-.432-.135-.732-.135-.2-.372-.332-.71-.366-.27-.033-.507.034-.676.2-.372.333-.372.898-.372.998l-.575 4.325s-.068.533-.372.533c-.067 0-.135-.167-.169-.7-.101-.93-.507-5.688-.54-5.688 0-.034-.068-.433-.407-.666-.236-.166-.507-.2-.845-.133-.879.166-.946 1.065-.845 1.497l.44 5.39s.033.366-.068.5c-.034.032-.068.066-.135.066-.203.033-.305-.433-.406-.666l-1.386-4.591s-.135-.4-.507-.599c-.203-.1-.44-.1-.71-.033-.88.3-.44 1.697-.44 1.73l1.048 4.325c.034.133.136.5.034.699-.034.066-.067.1-.135.1-.237-.034-.88-1.265-1.386-2.662 0 0-.135-.366-.474-.5-.236-.099-.507-.066-.81.034-.271.1-.44.3-.508.532-.135.4.068.799.101.899l2.232 6.853c0 .034.811 2.762 3.82 3.327.27.034 1.048.067 1.285.067 2.603 0 3.955-2.562 3.955-2.595l3.415-6.222c.169-.332.304-1.064-.27-1.497z"/>
    </g>
</svg>
