<svg xmlns="http://www.w3.org/2000/svg" width="35" height="36" viewBox="0 0 35 36">
    <g fill="none" fill-rule="nonzero">
        <path stroke="#000" d="M11.091 1c4.622 0 8.493 3.12 9.689 7.402H8.77a1.43 1.43 0 0 0-.093 0c-.559.058-1.028.591-1.022 1.16V20.79C3.767 19.372 1 15.62 1 11.193 1 5.542 5.51 1 11.091 1zm-1.176 9.691H28.27v10.726l-1.734-3.042a1.138 1.138 0 0 0-.928-.596c-.435-.021-.843.21-1.053.596l-6.222 10.914h-8.42V10.69z"/>
        <path stroke="#FF5000" d="M25.578 21.229l-8.11 14.207h16.189z"/>
    </g>
</svg>
