<svg xmlns="http://www.w3.org/2000/svg" width="60" height="25" viewBox="0 0 60 25">
    <g fill="#444" fill-rule="nonzero">
        <path d="M57 4c-.9 0-1.7.4-2.2 1L50 3.1V3c0-1.7-1.3-3-3-3s-3 1.3-3 3c0 .5.1.9.3 1.3l-6 6c-.4-.2-.8-.3-1.3-.3s-1 .1-1.4.4l-5.8-5.2c.1-.4.2-.7.2-1.1 0-1.7-1.3-3-3-3s-3 1.3-3 3c0 .3.1.7.2 1l-5.6 4.5c-.5-.3-1-.5-1.6-.5-.9 0-1.6.4-2.2 1L6 6.2V6c0-1.7-1.3-3-3-3S0 4.3 0 6s1.3 3 3 3c.9 0 1.6-.4 2.2-1l8.8 3.8v.2c0 1.7 1.3 3 3 3s3-1.3 3-3c0-.3-.1-.7-.2-1l5.6-4.5c.5.3 1 .5 1.6.5.5 0 1-.1 1.4-.4l5.8 5.2c-.1.4-.2.8-.2 1.2 0 1.7 1.3 3 3 3s3-1.3 3-3c0-.5-.1-.9-.3-1.3l6-6c.4.2.8.3 1.3.3.9 0 1.7-.4 2.2-1L54 6.9V7c0 1.7 1.3 3 3 3s3-1.3 3-3-1.3-3-3-3zM2 23h2v2H2zM2 19h2v2H2zM2 15h2v2H2zM2 11h2v2H2zM16 21h2v2h-2zM16 17h2v2h-2zM26 21h2v2h-2zM26 17h2v2h-2z"/>
        <path d="M26 13h2v2h-2zM26 9h2v2h-2zM36 22h2v2h-2zM36 18h2v2h-2zM46 20h2v2h-2zM46 16h2v2h-2zM46 12h2v2h-2zM46 8h2v2h-2zM56 20h2v2h-2zM56 16h2v2h-2zM56 12h2v2h-2z"/>
    </g>
</svg>
